<svg width="44" height="44" viewBox="0 0 44 44" fill="none" xmlns="http://www.w3.org/2000/svg">
<rect width="44" height="44" rx="8" fill="#2B892E"/>
<path d="M22 17.5C20.7574 17.5 19.75 18.5074 19.75 19.75C19.75 20.9926 20.7574 22 22 22C23.2426 22 24.25 20.9926 24.25 19.75C24.25 18.5074 23.2426 17.5 22 17.5Z" fill="white"/>
<path fill-rule="evenodd" clip-rule="evenodd" d="M11.5 14.875C11.5 13.8395 12.3395 13 13.375 13H30.625C31.6605 13 32.5 13.8395 32.5 14.875V24.625C32.5 25.6605 31.6605 26.5 30.625 26.5H13.375C12.3395 26.5 11.5 25.6605 11.5 24.625V14.875ZM18.25 19.75C18.25 17.6789 19.9289 16 22 16C24.0711 16 25.75 17.6789 25.75 19.75C25.75 21.8211 24.0711 23.5 22 23.5C19.9289 23.5 18.25 21.8211 18.25 19.75ZM28.75 19C28.3358 19 28 19.3358 28 19.75V19.7575C28 20.1717 28.3358 20.5075 28.75 20.5075H28.7575C29.1717 20.5075 29.5075 20.1717 29.5075 19.7575V19.75C29.5075 19.3358 29.1717 19 28.7575 19H28.75ZM14.5 19.75C14.5 19.3358 14.8358 19 15.25 19H15.2575C15.6717 19 16.0075 19.3358 16.0075 19.75V19.7575C16.0075 20.1717 15.6717 20.5075 15.2575 20.5075H15.25C14.8358 20.5075 14.5 20.1717 14.5 19.7575V19.75Z" fill="white"/>
<path d="M12.25 28C11.8358 28 11.5 28.3358 11.5 28.75C11.5 29.1642 11.8358 29.5 12.25 29.5C17.65 29.5 22.8802 30.2222 27.8498 31.5749C29.0404 31.899 30.25 31.0168 30.25 29.7551V28.75C30.25 28.3358 29.9142 28 29.5 28H12.25Z" fill="white"/>
</svg>
