<svg width="40" height="40" viewBox="0 0 40 40" fill="none" xmlns="http://www.w3.org/2000/svg">
<rect width="40" height="40" rx="8" fill="#2B4089"/>
<path d="M29 14.375C29 17.0674 24.9706 19.25 20 19.25C15.0294 19.25 11 17.0674 11 14.375C11 11.6826 15.0294 9.5 20 9.5C24.9706 9.5 29 11.6826 29 14.375Z" fill="white"/>
<path d="M20 20.75C22.6852 20.75 25.1905 20.1637 27.0784 19.1411C27.7684 18.7673 28.4248 18.3043 28.9747 17.7567C28.9915 17.8783 29 18.0011 29 18.125C29 20.8174 24.9706 23 20 23C15.0294 23 11 20.8174 11 18.125C11 18.0011 11.0085 17.8783 11.0253 17.7567C11.5752 18.3043 12.2316 18.7673 12.9216 19.1411C14.8095 20.1637 17.3148 20.75 20 20.75Z" fill="white"/>
<path d="M20 24.5C22.6852 24.5 25.1905 23.9137 27.0784 22.8911C27.7684 22.5173 28.4248 22.0543 28.9747 21.5067C28.9915 21.6283 29 21.7511 29 21.875C29 24.5674 24.9706 26.75 20 26.75C15.0294 26.75 11 24.5674 11 21.875C11 21.7511 11.0085 21.6283 11.0253 21.5067C11.5752 22.0543 12.2316 22.5173 12.9216 22.8911C14.8095 23.9137 17.3148 24.5 20 24.5Z" fill="white"/>
<path d="M20 28.25C22.6852 28.25 25.1905 27.6637 27.0784 26.6411C27.7684 26.2673 28.4248 25.8043 28.9747 25.2567C28.9915 25.3783 29 25.5011 29 25.625C29 28.3174 24.9706 30.5 20 30.5C15.0294 30.5 11 28.3174 11 25.625C11 25.5011 11.0085 25.3783 11.0253 25.2567C11.5752 25.8043 12.2316 26.2673 12.9216 26.6411C14.8095 27.6637 17.3148 28.25 20 28.25Z" fill="white"/>
</svg>
