<svg width="40" height="40" viewBox="0 0 40 40" fill="none" xmlns="http://www.w3.org/2000/svg">
<rect width="40" height="40" rx="8" fill="#D06604"/>
<path d="M13.625 11.75C12.1753 11.75 11 12.9253 11 14.375C11 15.8247 12.1753 17 13.625 17H26.375C27.8247 17 29 15.8247 29 14.375C29 12.9253 27.8247 11.75 26.375 11.75H13.625Z" fill="white"/>
<path d="M11.75 19.25C11.3358 19.25 11 19.5858 11 20C11 20.4142 11.3358 20.75 11.75 20.75H28.25C28.6642 20.75 29 20.4142 29 20C29 19.5858 28.6642 19.25 28.25 19.25H11.75Z" fill="white"/>
<path d="M11 23.75C11 23.3358 11.3358 23 11.75 23H28.25C28.6642 23 29 23.3358 29 23.75C29 24.1642 28.6642 24.5 28.25 24.5H11.75C11.3358 24.5 11 24.1642 11 23.75Z" fill="white"/>
<path d="M11.75 26.75C11.3358 26.75 11 27.0858 11 27.5C11 27.9142 11.3358 28.25 11.75 28.25H28.25C28.6642 28.25 29 27.9142 29 27.5C29 27.0858 28.6642 26.75 28.25 26.75H11.75Z" fill="white"/>
</svg>
