<svg width="811" height="511" viewBox="0 0 811 511" fill="none" xmlns="http://www.w3.org/2000/svg">
<path d="M48.5882 1H1V43.4167M48.5882 1V43.4167M48.5882 1H96.1765M48.5882 43.4167H1M48.5882 43.4167H96.1765M48.5882 43.4167V85.8333M1 43.4167V85.8333M96.1765 1V43.4167M96.1765 1H143.765M96.1765 43.4167H143.765M96.1765 43.4167V85.8333M143.765 1V43.4167M143.765 1H191.353M143.765 43.4167H191.353M143.765 43.4167V85.8333M191.353 1V43.4167M191.353 1H238.941M191.353 43.4167H238.941M191.353 43.4167V85.8333M238.941 1V43.4167M238.941 1H286.529M238.941 43.4167H286.529M238.941 43.4167V85.8333M286.529 1V43.4167M286.529 1H334.118M286.529 43.4167H334.118M286.529 43.4167V85.8333M334.118 1V43.4167M334.118 1H381.706M334.118 43.4167H381.706M334.118 43.4167V85.8333M381.706 1V43.4167M381.706 1H429.294M381.706 43.4167H429.294M381.706 43.4167V85.8333M429.294 1V43.4167M429.294 1H476.882M429.294 43.4167H476.882M429.294 43.4167V85.8333M476.882 1V43.4167M476.882 1H524.471M476.882 43.4167H524.471M476.882 43.4167V85.8333M524.471 1V43.4167M524.471 1H572.059M524.471 43.4167H572.059M524.471 43.4167V85.8333M572.059 1V43.4167M572.059 1H619.647M572.059 43.4167H619.647M572.059 43.4167V85.8333M619.647 1V43.4167M619.647 1H667.235M619.647 43.4167H667.235M619.647 43.4167V85.8333M667.235 1V43.4167M667.235 1H714.824M667.235 43.4167H714.824M667.235 43.4167V85.8333M714.824 1V43.4167M714.824 1H762.412M714.824 43.4167H762.412M714.824 43.4167V85.8333M762.412 1V43.4167M762.412 1H810V43.4167M762.412 43.4167H810M762.412 43.4167V85.8333M810 43.4167V85.8333M48.5882 85.8333H1M48.5882 85.8333H96.1765M48.5882 85.8333V128.25M1 85.8333V128.25M96.1765 85.8333H143.765M96.1765 85.8333V128.25M143.765 85.8333H191.353M143.765 85.8333V128.25M191.353 85.8333H238.941M191.353 85.8333V128.25M238.941 85.8333H286.529M238.941 85.8333V128.25M286.529 85.8333H334.118M286.529 85.8333V128.25M334.118 85.8333H381.706M334.118 85.8333V128.25M381.706 85.8333H429.294M381.706 85.8333V128.25M429.294 85.8333H476.882M429.294 85.8333V128.25M476.882 85.8333H524.471M476.882 85.8333V128.25M524.471 85.8333H572.059M524.471 85.8333V128.25M572.059 85.8333H619.647M572.059 85.8333V128.25M619.647 85.8333H667.235M619.647 85.8333V128.25M667.235 85.8333H714.824M667.235 85.8333V128.25M714.824 85.8333H762.412M714.824 85.8333V128.25M762.412 85.8333H810M762.412 85.8333V128.25M810 85.8333V128.25M48.5882 128.25H1M48.5882 128.25H96.1765M48.5882 128.25V170.667M1 128.25V170.667M96.1765 128.25H143.765M96.1765 128.25V170.667M143.765 128.25H191.353M143.765 128.25V170.667M191.353 128.25H238.941M191.353 128.25V170.667M238.941 128.25H286.529M238.941 128.25V170.667M286.529 128.25H334.118M286.529 128.25V170.667M334.118 128.25H381.706M334.118 128.25V170.667M381.706 128.25H429.294M381.706 128.25V170.667M429.294 128.25H476.882M429.294 128.25V170.667M476.882 128.25H524.471M476.882 128.25V170.667M524.471 128.25H572.059M524.471 128.25V170.667M572.059 128.25H619.647M572.059 128.25V170.667M619.647 128.25H667.235M619.647 128.25V170.667M667.235 128.25H714.824M667.235 128.25V170.667M714.824 128.25H762.412M714.824 128.25V170.667M762.412 128.25H810M762.412 128.25V170.667M810 128.25V170.667M48.5882 170.667H1M48.5882 170.667H96.1765M48.5882 170.667V213.083M1 170.667V213.083M96.1765 170.667H143.765M96.1765 170.667V213.083M143.765 170.667H191.353M143.765 170.667V213.083M191.353 170.667H238.941M191.353 170.667V213.083M238.941 170.667H286.529M238.941 170.667V213.083M286.529 170.667H334.118M286.529 170.667V213.083M334.118 170.667H381.706M334.118 170.667V213.083M381.706 170.667H429.294M381.706 170.667V213.083M429.294 170.667H476.882M429.294 170.667V213.083M476.882 170.667H524.471M476.882 170.667V213.083M524.471 170.667H572.059M524.471 170.667V213.083M572.059 170.667H619.647M572.059 170.667V213.083M619.647 170.667H667.235M619.647 170.667V213.083M667.235 170.667H714.824M667.235 170.667V213.083M714.824 170.667H762.412M714.824 170.667V213.083M762.412 170.667H810M762.412 170.667V213.083M810 170.667V213.083M48.5882 213.083H1M48.5882 213.083H96.1765M48.5882 213.083V255.5M1 213.083V255.5M96.1765 213.083H143.765M96.1765 213.083V255.5M143.765 213.083H191.353M143.765 213.083V255.5M191.353 213.083H238.941M191.353 213.083V255.5M238.941 213.083H286.529M238.941 213.083V255.5M286.529 213.083H334.118M286.529 213.083V255.5M334.118 213.083H381.706M334.118 213.083V255.5M381.706 213.083H429.294M381.706 213.083V255.5M429.294 213.083H476.882M429.294 213.083V255.5M476.882 213.083H524.471M476.882 213.083V255.5M524.471 213.083H572.059M524.471 213.083V255.5M572.059 213.083H619.647M572.059 213.083V255.5M619.647 213.083H667.235M619.647 213.083V255.5M667.235 213.083H714.824M667.235 213.083V255.5M714.824 213.083H762.412M714.824 213.083V255.5M762.412 213.083H810M762.412 213.083V255.5M810 213.083V255.5M48.5882 255.5H1M48.5882 255.5H96.1765M48.5882 255.5V297.917M1 255.5V297.917M96.1765 255.5H143.765M96.1765 255.5V297.917M143.765 255.5H191.353M143.765 255.5V297.917M191.353 255.5H238.941M191.353 255.5V297.917M238.941 255.5H286.529M238.941 255.5V297.917M286.529 255.5H334.118M286.529 255.5V297.917M334.118 255.5H381.706M334.118 255.5V297.917M381.706 255.5H429.294M381.706 255.5V297.917M429.294 255.5H476.882M429.294 255.5V297.917M476.882 255.5H524.471M476.882 255.5V297.917M524.471 255.5H572.059M524.471 255.5V297.917M572.059 255.5H619.647M572.059 255.5V297.917M619.647 255.5H667.235M619.647 255.5V297.917M667.235 255.5H714.824M667.235 255.5V297.917M714.824 255.5H762.412M714.824 255.5V297.917M762.412 255.5H810M762.412 255.5V297.917M810 255.5V297.917M48.5882 297.917H1M48.5882 297.917H96.1765M48.5882 297.917V340.333M1 297.917V340.333M96.1765 297.917H143.765M96.1765 297.917V340.333M143.765 297.917H191.353M143.765 297.917V340.333M191.353 297.917H238.941M191.353 297.917V340.333M238.941 297.917H286.529M238.941 297.917V340.333M286.529 297.917H334.118M286.529 297.917V340.333M334.118 297.917H381.706M334.118 297.917V340.333M381.706 297.917H429.294M381.706 297.917V340.333M429.294 297.917H476.882M429.294 297.917V340.333M476.882 297.917H524.471M476.882 297.917V340.333M524.471 297.917H572.059M524.471 297.917V340.333M572.059 297.917H619.647M572.059 297.917V340.333M619.647 297.917H667.235M619.647 297.917V340.333M667.235 297.917H714.824M667.235 297.917V340.333M714.824 297.917H762.412M714.824 297.917V340.333M762.412 297.917H810M762.412 297.917V340.333M810 297.917V340.333M48.5882 340.333H1M48.5882 340.333H96.1765M48.5882 340.333V382.75M1 340.333V382.75M96.1765 340.333H143.765M96.1765 340.333V382.75M143.765 340.333H191.353M143.765 340.333V382.75M191.353 340.333H238.941M191.353 340.333V382.75M238.941 340.333H286.529M238.941 340.333V382.75M286.529 340.333H334.118M286.529 340.333V382.75M334.118 340.333H381.706M334.118 340.333V382.75M381.706 340.333H429.294M381.706 340.333V382.75M429.294 340.333H476.882M429.294 340.333V382.75M476.882 340.333H524.471M476.882 340.333V382.75M524.471 340.333H572.059M524.471 340.333V382.75M572.059 340.333H619.647M572.059 340.333V382.75M619.647 340.333H667.235M619.647 340.333V382.75M667.235 340.333H714.824M667.235 340.333V382.75M714.824 340.333H762.412M714.824 340.333V382.75M762.412 340.333H810M762.412 340.333V382.75M810 340.333V382.75M48.5882 382.75H1M48.5882 382.75H96.1765M48.5882 382.75V425.167M1 382.75V425.167M96.1765 382.75H143.765M96.1765 382.75V425.167M143.765 382.75H191.353M143.765 382.75V425.167M191.353 382.75H238.941M191.353 382.75V425.167M238.941 382.75H286.529M238.941 382.75V425.167M286.529 382.75H334.118M286.529 382.75V425.167M334.118 382.75H381.706M334.118 382.75V425.167M381.706 382.75H429.294M381.706 382.75V425.167M429.294 382.75H476.882M429.294 382.75V425.167M476.882 382.75H524.471M476.882 382.75V425.167M524.471 382.75H572.059M524.471 382.75V425.167M572.059 382.75H619.647M572.059 382.75V425.167M619.647 382.75H667.235M619.647 382.75V425.167M667.235 382.75H714.824M667.235 382.75V425.167M714.824 382.75H762.412M714.824 382.75V425.167M762.412 382.75H810M762.412 382.75V425.167M810 382.75V425.167M48.5882 425.167H1M48.5882 425.167H96.1765M48.5882 425.167V467.583M1 425.167V467.583M96.1765 425.167H143.765M96.1765 425.167V467.583M143.765 425.167H191.353M143.765 425.167V467.583M191.353 425.167H238.941M191.353 425.167V467.583M238.941 425.167H286.529M238.941 425.167V467.583M286.529 425.167H334.118M286.529 425.167V467.583M334.118 425.167H381.706M334.118 425.167V467.583M381.706 425.167H429.294M381.706 425.167V467.583M429.294 425.167H476.882M429.294 425.167V467.583M476.882 425.167H524.471M476.882 425.167V467.583M524.471 425.167H572.059M524.471 425.167V467.583M572.059 425.167H619.647M572.059 425.167V467.583M619.647 425.167H667.235M619.647 425.167V467.583M667.235 425.167H714.824M667.235 425.167V467.583M714.824 425.167H762.412M714.824 425.167V467.583M762.412 425.167H810M762.412 425.167V467.583M810 425.167V467.583M48.5882 467.583H1M48.5882 467.583H96.1765M48.5882 467.583V510M1 467.583V510H48.5882M96.1765 467.583H143.765M96.1765 467.583V510M143.765 467.583H191.353M143.765 467.583V510M191.353 467.583H238.941M191.353 467.583V510M238.941 467.583H286.529M238.941 467.583V510M286.529 467.583H334.118M286.529 467.583V510M334.118 467.583H381.706M334.118 467.583V510M381.706 467.583H429.294M381.706 467.583V510M429.294 467.583H476.882M429.294 467.583V510M476.882 467.583H524.471M476.882 467.583V510M524.471 467.583H572.059M524.471 467.583V510M572.059 467.583H619.647M572.059 467.583V510M619.647 467.583H667.235M619.647 467.583V510M667.235 467.583H714.824M667.235 467.583V510M714.824 467.583H762.412M714.824 467.583V510M762.412 467.583H810M762.412 467.583V510M810 467.583V510H762.412M48.5882 510H96.1765M96.1765 510H143.765M143.765 510H191.353M191.353 510H238.941M238.941 510H286.529M286.529 510H334.118M334.118 510H381.706M381.706 510H429.294M429.294 510H476.882M476.882 510H524.471M524.471 510H572.059M572.059 510H619.647M619.647 510H667.235M667.235 510H714.824M714.824 510H762.412" stroke="url(#paint0_radial_2_737)" stroke-opacity="0.08"/>
<defs>
<radialGradient id="paint0_radial_2_737" cx="0" cy="0" r="1" gradientUnits="userSpaceOnUse" gradientTransform="translate(405.5 269.095) rotate(90) scale(240.361 405.11)">
<stop stop-color="white"/>
<stop offset="1" stop-color="white" stop-opacity="0"/>
</radialGradient>
</defs>
</svg>
